<svg width="56" height="56" viewBox="0 0 56 56" fill="none" xmlns="http://www.w3.org/2000/svg">
<rect width="56" height="56" rx="15" fill="#1D1D1D"/>
<path d="M42.1266 30.399L42.9692 31.0585C42.2121 32.1087 41.1741 32.9879 39.8552 33.6962C38.5363 34.3801 37.2541 34.722 36.0085 34.722C34.7629 34.722 33.7615 34.3556 33.0044 33.6229C32.2472 32.8902 31.8687 31.9255 31.8687 30.7287C31.8687 28.4818 33.0532 26.2714 35.4223 24.0977C37.8158 21.924 40.2337 20.8372 42.6761 20.8372C44.2881 20.8372 45.0941 21.4722 45.0941 22.7422C45.0941 24.0611 44.2392 25.3922 42.5296 26.7355C40.8443 28.0788 38.463 29.2999 35.3857 30.399C35.6055 30.9608 35.9474 31.4004 36.4114 31.7179C36.8755 32.0354 37.3518 32.1941 37.8402 32.1941C38.8905 32.1941 40.3192 31.5958 42.1266 30.399ZM35.2025 29.3C37.1808 28.6161 38.8782 27.7613 40.2948 26.7355C41.7114 25.7097 42.4197 24.7694 42.4197 23.9145C42.4197 23.597 42.2975 23.3162 42.0533 23.0719C41.8091 22.8277 41.5282 22.7056 41.2107 22.7056C40.0628 22.7056 38.8172 23.4261 37.4739 24.8671C36.155 26.2836 35.3979 27.7613 35.2025 29.3Z" fill="white"/>
<path d="M30.003 29.7058L32.6041 29.6691V31.1712C32.311 31.1223 31.9691 31.0979 31.5783 31.0979C31.1875 31.0979 30.7479 31.1223 30.2594 31.1712C30.2594 33.0518 29.3557 34.9569 27.5484 36.8863C25.741 38.8158 23.5551 40.3789 20.9906 41.5757C18.4506 42.7968 16.0815 43.4074 13.8834 43.4074C12.7354 43.4074 11.7951 43.1144 11.0624 42.5282C10.3541 41.942 10 41.1727 10 40.2201C10 38.8036 10.9403 37.3259 12.8209 35.7873C14.7016 34.2486 16.8997 32.9785 19.4153 31.9772C21.931 30.9758 24.2023 30.3896 26.2295 30.2187C25.9853 29.8523 25.6067 29.5348 25.0938 29.2661C24.5809 28.9975 23.5307 28.5823 21.9432 28.0205C20.3556 27.4344 19.2321 26.7994 18.5727 26.1155C17.9133 25.4072 17.5835 24.4181 17.5835 23.148C17.5835 21.878 18.2674 20.4248 19.6351 18.7884C21.0029 17.152 22.6148 15.7843 24.471 14.6852C26.3516 13.5617 28.0002 13 29.4168 13C30.0518 13 30.5769 13.232 30.9921 13.6961C31.4073 14.1357 31.6149 14.6852 31.6149 15.3447C31.6149 16.4193 30.9677 17.7748 29.6732 19.4112C28.3788 21.0232 26.9378 22.2566 25.3503 23.1114L24.471 21.8658C25.4235 21.3773 26.2539 20.6202 26.9622 19.5944C27.6949 18.5442 28.0613 17.6405 28.0613 16.8834C28.0613 16.1262 27.6583 15.7477 26.8523 15.7477C25.7044 15.7477 24.3855 16.4682 22.8957 17.9092C21.4303 19.3257 20.6976 20.6568 20.6976 21.9024C20.6976 22.7572 20.9174 23.4289 21.357 23.9174C21.7966 24.4058 22.9079 25.0164 24.6908 25.7491C26.4737 26.4574 27.7438 27.0924 28.5009 27.6542C29.258 28.1915 29.7587 28.8754 30.003 29.7058ZM13.6635 39.2676C13.6635 40.44 14.6161 41.0261 16.5211 41.0261C17.5713 41.0261 18.9268 40.6354 20.5876 39.8538C22.2729 39.0967 23.7505 38.022 25.0205 36.6299C26.315 35.2621 26.9622 33.8578 26.9622 32.4168C26.9622 32.2458 26.9256 31.9894 26.8523 31.6474C23.5063 31.965 20.4655 32.9053 17.7301 34.4684C15.0191 36.0315 13.6635 37.6312 13.6635 39.2676Z" fill="white"/>
</svg>
